solid OpenSCAD_Model
  facet normal -1 0 0
    outer loop
      vertex -24.5 4 -19.5
      vertex -24.5 4 15.5
      vertex -24.5 6 -19.5
    endloop
  endfacet
  facet normal -1 0 0
    outer loop
      vertex -24.5 6 -19.5
      vertex -24.5 4 15.5
      vertex -24.5 6 15.5
    endloop
  endfacet
  facet normal 0 -1 0
    outer loop
      vertex -21.7678 4 -13.7678
      vertex -24.5 4 -19.5
      vertex -15 4 -19.5
    endloop
  endfacet
  facet normal 0 -1 0
    outer loop
      vertex -9.5 4 15.5
      vertex -24.5 4 15.5
      vertex -15 4 15.5
    endloop
  endfacet
  facet normal 0 -1 0
    outer loop
      vertex -22.5 4 8
      vertex -21.7678 4 9.76777
      vertex -24.5 4 15.5
    endloop
  endfacet
  facet normal 0 -1 0
    outer loop
      vertex -20 4 -14.5
      vertex -21.7678 4 -13.7678
      vertex -15 4 -19.5
    endloop
  endfacet
  facet normal 0 -1 0
    outer loop
      vertex -22.5 4 -12
      vertex -24.5 4 -19.5
      vertex -21.7678 4 -13.7678
    endloop
  endfacet
  facet normal 0 -1 0
    outer loop
      vertex -24.5 4 15.5
      vertex -24.5 4 -19.5
      vertex -22.5 4 -12
    endloop
  endfacet
  facet normal 0 -1 0
    outer loop
      vertex -21.7678 4 6.23223
      vertex -22.5 4 8
      vertex -15 4 -19.5
    endloop
  endfacet
  facet normal 0 -1 0
    outer loop
      vertex -18.2322 4 -13.7678
      vertex -20 4 -14.5
      vertex -15 4 -19.5
    endloop
  endfacet
  facet normal 0 -1 0
    outer loop
      vertex -24.5 4 15.5
      vertex -21.7678 4 -10.2322
      vertex -20 4 -9.5
    endloop
  endfacet
  facet normal 0 -1 0
    outer loop
      vertex -24.5 4 15.5
      vertex -20 4 -9.5
      vertex -18.2322 4 -10.2322
    endloop
  endfacet
  facet normal 0 -1 0
    outer loop
      vertex -22.5 4 8
      vertex -17.5 4 -12
      vertex -15 4 -19.5
    endloop
  endfacet
  facet normal 0 -1 0
    outer loop
      vertex -24.5 4 15.5
      vertex -18.2322 4 -10.2322
      vertex -17.5 4 -12
    endloop
  endfacet
  facet normal 0 -1 0
    outer loop
      vertex -20 4 10.5
      vertex -18.2322 4 9.76777
      vertex -15 4 15.5
    endloop
  endfacet
  facet normal 0 -1 0
    outer loop
      vertex -20 4 5.5
      vertex -21.7678 4 6.23223
      vertex -15 4 -19.5
    endloop
  endfacet
  facet normal 0 -1 0
    outer loop
      vertex -24.5 4 15.5
      vertex -17.5 4 -12
      vertex -22.5 4 8
    endloop
  endfacet
  facet normal 0 -1 0
    outer loop
      vertex -15 4 15.5
      vertex -24.5 4 15.5
      vertex -21.7678 4 9.76777
    endloop
  endfacet
  facet normal 0 -1 0
    outer loop
      vertex -17.5 4 8
      vertex -18.2322 4 6.23223
      vertex -15 4 -19.5
    endloop
  endfacet
  facet normal 0 -1 0
    outer loop
      vertex -15 4 15.5
      vertex -21.7678 4 9.76777
      vertex -20 4 10.5
    endloop
  endfacet
  facet normal 0 -1 0
    outer loop
      vertex -15 4 15.5
      vertex -17.5 4 8
      vertex -15 4 -19.5
    endloop
  endfacet
  facet normal 0 -1 0
    outer loop
      vertex -15 4 15.5
      vertex -18.2322 4 9.76777
      vertex -17.5 4 8
    endloop
  endfacet
  facet normal 0 -1 0
    outer loop
      vertex -18.2322 4 6.23223
      vertex -20 4 5.5
      vertex -15 4 -19.5
    endloop
  endfacet
  facet normal 0 -1 0
    outer loop
      vertex -22.5 4 -12
      vertex -21.7678 4 -10.2322
      vertex -24.5 4 15.5
    endloop
  endfacet
  facet normal 0 -1 0
    outer loop
      vertex -17.5 4 -12
      vertex -18.2322 4 -13.7678
      vertex -15 4 -19.5
    endloop
  endfacet
  facet normal 0 0 -1
    outer loop
      vertex -24.5 4 -19.5
      vertex -24.5 6 -19.5
      vertex -15 4 -19.5
    endloop
  endfacet
  facet normal 0 0 -1
    outer loop
      vertex -15 6 -19.5
      vertex -24.5 6 -19.5
      vertex -9.5 6 -19.5
    endloop
  endfacet
  facet normal 0 0 -1
    outer loop
      vertex -15 4 -19.5
      vertex -24.5 6 -19.5
      vertex -15 6 -19.5
    endloop
  endfacet
  facet normal 0 1 0
    outer loop
      vertex -20 6 5.5
      vertex -9.5 6 -19.5
      vertex -21.7678 6 6.23223
    endloop
  endfacet
  facet normal 0 1 0
    outer loop
      vertex -15 6 15.5
      vertex -24.5 6 15.5
      vertex -9.5 6 15.5
    endloop
  endfacet
  facet normal 0 1 0
    outer loop
      vertex -18.2322 6 9.76777
      vertex -24.5 6 15.5
      vertex -15 6 15.5
    endloop
  endfacet
  facet normal 0 1 0
    outer loop
      vertex -18.2322 6 -13.7678
      vertex -9.5 6 -19.5
      vertex -20 6 -14.5
    endloop
  endfacet
  facet normal 0 1 0
    outer loop
      vertex -24.5 6 -19.5
      vertex -24.5 6 15.5
      vertex -22.5 6 -12
    endloop
  endfacet
  facet normal 0 1 0
    outer loop
      vertex -24.5 6 -19.5
      vertex -22.5 6 -12
      vertex -21.7678 6 -13.7678
    endloop
  endfacet
  facet normal 0 1 0
    outer loop
      vertex -24.5 6 -19.5
      vertex -21.7678 6 -13.7678
      vertex -9.5 6 -19.5
    endloop
  endfacet
  facet normal 0 1 0
    outer loop
      vertex -21.7678 6 -13.7678
      vertex -20 6 -14.5
      vertex -9.5 6 -19.5
    endloop
  endfacet
  facet normal 0 1 0
    outer loop
      vertex -22.5 6 8
      vertex -24.5 6 15.5
      vertex -21.7678 6 9.76777
    endloop
  endfacet
  facet normal 0 1 0
    outer loop
      vertex -20 6 -9.5
      vertex -24.5 6 15.5
      vertex -18.2322 6 -10.2322
    endloop
  endfacet
  facet normal 0 1 0
    outer loop
      vertex -18.2322 6 -10.2322
      vertex -24.5 6 15.5
      vertex -17.5 6 -12
    endloop
  endfacet
  facet normal 0 1 0
    outer loop
      vertex -18.2322 6 -13.7678
      vertex -17.5 6 -12
      vertex -9.5 6 -19.5
    endloop
  endfacet
  facet normal 0 1 0
    outer loop
      vertex -18.2322 6 6.23223
      vertex -15 6 -1.33227e-15
      vertex -20 6 5.5
    endloop
  endfacet
  facet normal 0 1 0
    outer loop
      vertex -21.7678 6 -10.2322
      vertex -24.5 6 15.5
      vertex -20 6 -9.5
    endloop
  endfacet
  facet normal 0 1 0
    outer loop
      vertex -22.5 6 -12
      vertex -24.5 6 15.5
      vertex -21.7678 6 -10.2322
    endloop
  endfacet
  facet normal 0 1 0
    outer loop
      vertex -17.5 6 -12
      vertex -24.5 6 15.5
      vertex -22.5 6 8
    endloop
  endfacet
  facet normal 0 1 0
    outer loop
      vertex -17.5 6 -12
      vertex -22.5 6 8
      vertex -21.7678 6 6.23223
    endloop
  endfacet
  facet normal 0 1 0
    outer loop
      vertex -17.5 6 -12
      vertex -21.7678 6 6.23223
      vertex -9.5 6 -19.5
    endloop
  endfacet
  facet normal 0 1 0
    outer loop
      vertex -9.5 6 -19.5
      vertex -20 6 5.5
      vertex -15 6 -1.33227e-15
    endloop
  endfacet
  facet normal 0 1 0
    outer loop
      vertex -18.2322 6 9.76777
      vertex -15 6 15.5
      vertex -17.5 6 8
    endloop
  endfacet
  facet normal 0 1 0
    outer loop
      vertex -15 6 -1.33227e-15
      vertex -18.2322 6 6.23223
      vertex -17.5 6 8
    endloop
  endfacet
  facet normal 0 1 0
    outer loop
      vertex -15 6 -1.33227e-15
      vertex -17.5 6 8
      vertex -15 6 15.5
    endloop
  endfacet
  facet normal 0 1 0
    outer loop
      vertex -20 6 10.5
      vertex -24.5 6 15.5
      vertex -18.2322 6 9.76777
    endloop
  endfacet
  facet normal 0 1 0
    outer loop
      vertex -21.7678 6 9.76777
      vertex -24.5 6 15.5
      vertex -20 6 10.5
    endloop
  endfacet
  facet normal 0 1 0
    outer loop
      vertex -9.5 6 -1.33227e-15
      vertex -9.5 6 -19.5
      vertex -15 6 -1.33227e-15
    endloop
  endfacet
  facet normal 0 0 1
    outer loop
      vertex -24.5 6 15.5
      vertex -24.5 4 15.5
      vertex -9.5 4 15.5
    endloop
  endfacet
  facet normal 0 0 1
    outer loop
      vertex -9.5 6 15.5
      vertex -24.5 6 15.5
      vertex -9.5 4 15.5
    endloop
  endfacet
  facet normal 0 2.22045e-16 1
    outer loop
      vertex -13.5 -1 15.5
      vertex -15 -2 15.5
      vertex -11 -2 15.5
    endloop
  endfacet
  facet normal 0 2.22045e-16 1
    outer loop
      vertex 19 -1 15.5
      vertex 16.5 -1 15.5
      vertex 19 -2 15.5
    endloop
  endfacet
  facet normal 0 2.22045e-16 1
    outer loop
      vertex -15 4 15.5
      vertex -15 -2 15.5
      vertex -13.5 -1 15.5
    endloop
  endfacet
  facet normal 0 2.22045e-16 1
    outer loop
      vertex -13.5 1 15.5
      vertex -11 1 15.5
      vertex -15 4 15.5
    endloop
  endfacet
  facet normal 0 2.22045e-16 1
    outer loop
      vertex -15 4 15.5
      vertex -13.5 -1 15.5
      vertex -13.5 1 15.5
    endloop
  endfacet
  facet normal 0 2.22045e-16 1
    outer loop
      vertex -11 3.5 15.5
      vertex -15 4 15.5
      vertex -11 1 15.5
    endloop
  endfacet
  facet normal 0 2.22045e-16 1
    outer loop
      vertex 11 3.5 15.5
      vertex -15 4 15.5
      vertex -11 3.5 15.5
    endloop
  endfacet
  facet normal 0 2.22045e-16 1
    outer loop
      vertex 19 3.5 15.5
      vertex -15 4 15.5
      vertex 11 3.5 15.5
    endloop
  endfacet
  facet normal 0 2.22045e-16 1
    outer loop
      vertex 13.5 1 15.5
      vertex 11 3.5 15.5
      vertex 11 1 15.5
    endloop
  endfacet
  facet normal 0 2.22045e-16 1
    outer loop
      vertex 16.5 -1 15.5
      vertex 16.5 1 15.5
      vertex 11 3.5 15.5
    endloop
  endfacet
  facet normal 0 2.22045e-16 1
    outer loop
      vertex 16.5 -1 15.5
      vertex 11 3.5 15.5
      vertex 13.5 1 15.5
    endloop
  endfacet
  facet normal 0 2.22045e-16 1
    outer loop
      vertex 16.5 -1 15.5
      vertex 13.5 1 15.5
      vertex 13.5 -1 15.5
    endloop
  endfacet
  facet normal 0 2.22045e-16 1
    outer loop
      vertex 42 -1 15.5
      vertex 42 -2 15.5
      vertex 43.5 -1 15.5
    endloop
  endfacet
  facet normal 0 2.22045e-16 1
    outer loop
      vertex 19 -2 15.5
      vertex 13.5 -1 15.5
      vertex 12 -2 15.5
    endloop
  endfacet
  facet normal 0 2.22045e-16 1
    outer loop
      vertex 49 -1 15.5
      vertex 46.5 -1 15.5
      vertex 49 -2 15.5
    endloop
  endfacet
  facet normal 0 2.22045e-16 1
    outer loop
      vertex 19 -2 15.5
      vertex 16.5 -1 15.5
      vertex 13.5 -1 15.5
    endloop
  endfacet
  facet normal 0 2.22045e-16 1
    outer loop
      vertex 19 1 15.5
      vertex 11 3.5 15.5
      vertex 16.5 1 15.5
    endloop
  endfacet
  facet normal 0 2.22045e-16 1
    outer loop
      vertex 19 3.5 15.5
      vertex 11 3.5 15.5
      vertex 19 1 15.5
    endloop
  endfacet
  facet normal 0 2.22045e-16 1
    outer loop
      vertex 41 3.5 15.5
      vertex -15 4 15.5
      vertex 19 3.5 15.5
    endloop
  endfacet
  facet normal 0 2.22045e-16 1
    outer loop
      vertex 49 3.5 15.5
      vertex -15 4 15.5
      vertex 41 3.5 15.5
    endloop
  endfacet
  facet normal 0 2.22045e-16 1
    outer loop
      vertex 43.5 1 15.5
      vertex 41 3.5 15.5
      vertex 41 1 15.5
    endloop
  endfacet
  facet normal 0 2.22045e-16 1
    outer loop
      vertex 46.5 -1 15.5
      vertex 46.5 1 15.5
      vertex 41 3.5 15.5
    endloop
  endfacet
  facet normal 0 2.22045e-16 1
    outer loop
      vertex 46.5 -1 15.5
      vertex 41 3.5 15.5
      vertex 43.5 1 15.5
    endloop
  endfacet
  facet normal 0 2.22045e-16 1
    outer loop
      vertex 46.5 -1 15.5
      vertex 43.5 1 15.5
      vertex 43.5 -1 15.5
    endloop
  endfacet
  facet normal 0 2.22045e-16 1
    outer loop
      vertex 72 -1 15.5
      vertex 72 -2 15.5
      vertex 73.5 -1 15.5
    endloop
  endfacet
  facet normal 0 2.22045e-16 1
    outer loop
      vertex 49 -2 15.5
      vertex 43.5 -1 15.5
      vertex 42 -2 15.5
    endloop
  endfacet
  facet normal 0 2.22045e-16 1
    outer loop
      vertex 79 -1 15.5
      vertex 76.5 -1 15.5
      vertex 79 -2 15.5
    endloop
  endfacet
  facet normal 0 2.22045e-16 1
    outer loop
      vertex 49 -2 15.5
      vertex 46.5 -1 15.5
      vertex 43.5 -1 15.5
    endloop
  endfacet
  facet normal 0 2.22045e-16 1
    outer loop
      vertex 49 1 15.5
      vertex 41 3.5 15.5
      vertex 46.5 1 15.5
    endloop
  endfacet
  facet normal 0 2.22045e-16 1
    outer loop
      vertex 49 3.5 15.5
      vertex 41 3.5 15.5
      vertex 49 1 15.5
    endloop
  endfacet
  facet normal 0 2.22045e-16 1
    outer loop
      vertex 71 3.5 15.5
      vertex -15 4 15.5
      vertex 49 3.5 15.5
    endloop
  endfacet
  facet normal 0 2.22045e-16 1
    outer loop
      vertex 79 3.5 15.5
      vertex -15 4 15.5
      vertex 71 3.5 15.5
    endloop
  endfacet
  facet normal 0 2.22045e-16 1
    outer loop
      vertex 73.5 1 15.5
      vertex 71 3.5 15.5
      vertex 71 1 15.5
    endloop
  endfacet
  facet normal 0 2.22045e-16 1
    outer loop
      vertex 76.5 -1 15.5
      vertex 76.5 1 15.5
      vertex 71 3.5 15.5
    endloop
  endfacet
  facet normal 0 2.22045e-16 1
    outer loop
      vertex 76.5 -1 15.5
      vertex 71 3.5 15.5
      vertex 73.5 1 15.5
    endloop
  endfacet
  facet normal 0 2.22045e-16 1
    outer loop
      vertex 76.5 -1 15.5
      vertex 73.5 1 15.5
      vertex 73.5 -1 15.5
    endloop
  endfacet
  facet normal 0 2.22045e-16 1
    outer loop
      vertex 102 -1 15.5
      vertex 102 -2 15.5
      vertex 103.5 -1 15.5
    endloop
  endfacet
  facet normal 0 2.22045e-16 1
    outer loop
      vertex 79 -2 15.5
      vertex 73.5 -1 15.5
      vertex 72 -2 15.5
    endloop
  endfacet
  facet normal 0 2.22045e-16 1
    outer loop
      vertex 79 -2 15.5
      vertex 76.5 -1 15.5
      vertex 73.5 -1 15.5
    endloop
  endfacet
  facet normal 0 2.22045e-16 1
    outer loop
      vertex 79 1 15.5
      vertex 71 3.5 15.5
      vertex 76.5 1 15.5
    endloop
  endfacet
  facet normal 0 2.22045e-16 1
    outer loop
      vertex 79 3.5 15.5
      vertex 71 3.5 15.5
      vertex 79 1 15.5
    endloop
  endfacet
  facet normal 0 2.22045e-16 1
    outer loop
      vertex 101 3.5 15.5
      vertex -15 4 15.5
      vertex 79 3.5 15.5
    endloop
  endfacet
  facet normal 0 2.22045e-16 1
    outer loop
      vertex 99.5 4 15.5
      vertex -9.5 4 15.5
      vertex 101 3.5 15.5
    endloop
  endfacet
  facet normal 0 2.22045e-16 1
    outer loop
      vertex 103.5 1 15.5
      vertex 101 3.5 15.5
      vertex 101 1 15.5
    endloop
  endfacet
  facet normal 0 2.22045e-16 1
    outer loop
      vertex 105 4 15.5
      vertex 101 3.5 15.5
      vertex 103.5 1 15.5
    endloop
  endfacet
  facet normal 0 2.22045e-16 1
    outer loop
      vertex 105 -2 15.5
      vertex 103.5 1 15.5
      vertex 103.5 -1 15.5
    endloop
  endfacet
  facet normal 0 2.22045e-16 1
    outer loop
      vertex -9.5 6 15.5
      vertex -9.5 4 15.5
      vertex 99.5 6 15.5
    endloop
  endfacet
  facet normal 0 2.22045e-16 1
    outer loop
      vertex 105 -2 15.5
      vertex 103.5 -1 15.5
      vertex 102 -2 15.5
    endloop
  endfacet
  facet normal 0 2.22045e-16 1
    outer loop
      vertex 105 4 15.5
      vertex 103.5 1 15.5
      vertex 105 -2 15.5
    endloop
  endfacet
  facet normal 0 2.22045e-16 1
    outer loop
      vertex -9.5 4 15.5
      vertex -15 4 15.5
      vertex 101 3.5 15.5
    endloop
  endfacet
  facet normal 0 2.22045e-16 1
    outer loop
      vertex 105 4 15.5
      vertex 99.5 4 15.5
      vertex 101 3.5 15.5
    endloop
  endfacet
  facet normal 0 2.22045e-16 1
    outer loop
      vertex 105 6 15.5
      vertex -15 6 15.5
      vertex 99.5 6 15.5
    endloop
  endfacet
  facet normal 0 2.22045e-16 1
    outer loop
      vertex 99.5 6 15.5
      vertex -15 6 15.5
      vertex -9.5 6 15.5
    endloop
  endfacet
  facet normal 0 2.22045e-16 1
    outer loop
      vertex 99.5 6 15.5
      vertex -9.5 4 15.5
      vertex 99.5 4 15.5
    endloop
  endfacet
  facet normal 0 2.22045e-16 1
    outer loop
      vertex 12 -1 15.5
      vertex 12 -2 15.5
      vertex 13.5 -1 15.5
    endloop
  endfacet
  facet normal 0 2.22045e-16 1
    outer loop
      vertex -11 -1 15.5
      vertex -13.5 -1 15.5
      vertex -11 -2 15.5
    endloop
  endfacet
  facet normal -1 0 0
    outer loop
      vertex -15 -2 -19.5
      vertex -15 -2 15.5
      vertex -15 4 -19.5
    endloop
  endfacet
  facet normal -1 0 0
    outer loop
      vertex -15 -2 -19.5
      vertex -15 4 -19.5
      vertex -15 6 -19.5
    endloop
  endfacet
  facet normal -1 0 0
    outer loop
      vertex -15 4 -19.5
      vertex -15 -2 15.5
      vertex -15 4 15.5
    endloop
  endfacet
  facet normal 0.382683 2.05142e-16 0.92388
    outer loop
      vertex -20 4 -14.5
      vertex -20 6 -14.5
      vertex -21.7678 6 -13.7678
    endloop
  endfacet
  facet normal 0.382683 2.05142e-16 0.92388
    outer loop
      vertex -21.7678 4 -13.7678
      vertex -20 4 -14.5
      vertex -21.7678 6 -13.7678
    endloop
  endfacet
  facet normal 0.92388 8.49728e-17 0.382683
    outer loop
      vertex -21.7678 4 -13.7678
      vertex -21.7678 6 -13.7678
      vertex -22.5 6 -12
    endloop
  endfacet
  facet normal 0.92388 8.49728e-17 0.382683
    outer loop
      vertex -22.5 4 -12
      vertex -21.7678 4 -13.7678
      vertex -22.5 6 -12
    endloop
  endfacet
  facet normal -0.382683 2.05142e-16 0.92388
    outer loop
      vertex -18.2322 4 -13.7678
      vertex -18.2322 6 -13.7678
      vertex -20 6 -14.5
    endloop
  endfacet
  facet normal -0.382683 2.05142e-16 0.92388
    outer loop
      vertex -20 4 -14.5
      vertex -18.2322 4 -13.7678
      vertex -20 6 -14.5
    endloop
  endfacet
  facet normal -0.92388 8.49728e-17 0.382683
    outer loop
      vertex -17.5 6 -12
      vertex -18.2322 6 -13.7678
      vertex -17.5 4 -12
    endloop
  endfacet
  facet normal -0.92388 8.49728e-17 0.382683
    outer loop
      vertex -17.5 4 -12
      vertex -18.2322 6 -13.7678
      vertex -18.2322 4 -13.7678
    endloop
  endfacet
  facet normal -0.92388 -8.49728e-17 -0.382683
    outer loop
      vertex -17.5 6 -12
      vertex -17.5 4 -12
      vertex -18.2322 6 -10.2322
    endloop
  endfacet
  facet normal -0.92388 -8.49728e-17 -0.382683
    outer loop
      vertex -18.2322 6 -10.2322
      vertex -17.5 4 -12
      vertex -18.2322 4 -10.2322
    endloop
  endfacet
  facet normal -0.382683 -2.05142e-16 -0.92388
    outer loop
      vertex -18.2322 6 -10.2322
      vertex -18.2322 4 -10.2322
      vertex -20 6 -9.5
    endloop
  endfacet
  facet normal -0.382683 -2.05142e-16 -0.92388
    outer loop
      vertex -20 6 -9.5
      vertex -18.2322 4 -10.2322
      vertex -20 4 -9.5
    endloop
  endfacet
  facet normal 0.382683 -2.05142e-16 -0.92388
    outer loop
      vertex -20 6 -9.5
      vertex -20 4 -9.5
      vertex -21.7678 6 -10.2322
    endloop
  endfacet
  facet normal 0.382683 -2.05142e-16 -0.92388
    outer loop
      vertex -21.7678 6 -10.2322
      vertex -20 4 -9.5
      vertex -21.7678 4 -10.2322
    endloop
  endfacet
  facet normal 0.92388 -8.49728e-17 -0.382683
    outer loop
      vertex -22.5 6 -12
      vertex -21.7678 6 -10.2322
      vertex -21.7678 4 -10.2322
    endloop
  endfacet
  facet normal 0.92388 -8.49728e-17 -0.382683
    outer loop
      vertex -22.5 4 -12
      vertex -22.5 6 -12
      vertex -21.7678 4 -10.2322
    endloop
  endfacet
  facet normal 0.92388 8.49728e-17 0.382683
    outer loop
      vertex -21.7678 4 6.23223
      vertex -21.7678 6 6.23223
      vertex -22.5 6 8
    endloop
  endfacet
  facet normal 0.92388 8.49728e-17 0.382683
    outer loop
      vertex -22.5 4 8
      vertex -21.7678 4 6.23223
      vertex -22.5 6 8
    endloop
  endfacet
  facet normal 0.382683 2.05142e-16 0.92388
    outer loop
      vertex -20 4 5.5
      vertex -20 6 5.5
      vertex -21.7678 6 6.23223
    endloop
  endfacet
  facet normal 0.382683 2.05142e-16 0.92388
    outer loop
      vertex -21.7678 4 6.23223
      vertex -20 4 5.5
      vertex -21.7678 6 6.23223
    endloop
  endfacet
  facet normal -0.382683 2.05142e-16 0.92388
    outer loop
      vertex -18.2322 4 6.23223
      vertex -18.2322 6 6.23223
      vertex -20 6 5.5
    endloop
  endfacet
  facet normal -0.382683 2.05142e-16 0.92388
    outer loop
      vertex -20 4 5.5
      vertex -18.2322 4 6.23223
      vertex -20 6 5.5
    endloop
  endfacet
  facet normal -0.92388 8.49728e-17 0.382683
    outer loop
      vertex -17.5 6 8
      vertex -18.2322 6 6.23223
      vertex -17.5 4 8
    endloop
  endfacet
  facet normal -0.92388 8.49728e-17 0.382683
    outer loop
      vertex -17.5 4 8
      vertex -18.2322 6 6.23223
      vertex -18.2322 4 6.23223
    endloop
  endfacet
  facet normal -0.92388 -8.49728e-17 -0.382683
    outer loop
      vertex -17.5 6 8
      vertex -17.5 4 8
      vertex -18.2322 6 9.76777
    endloop
  endfacet
  facet normal -0.92388 -8.49728e-17 -0.382683
    outer loop
      vertex -18.2322 6 9.76777
      vertex -17.5 4 8
      vertex -18.2322 4 9.76777
    endloop
  endfacet
  facet normal -0.382683 -2.05142e-16 -0.92388
    outer loop
      vertex -18.2322 6 9.76777
      vertex -18.2322 4 9.76777
      vertex -20 6 10.5
    endloop
  endfacet
  facet normal -0.382683 -2.05142e-16 -0.92388
    outer loop
      vertex -20 6 10.5
      vertex -18.2322 4 9.76777
      vertex -20 4 10.5
    endloop
  endfacet
  facet normal 0.382683 -2.05142e-16 -0.92388
    outer loop
      vertex -20 6 10.5
      vertex -20 4 10.5
      vertex -21.7678 6 9.76777
    endloop
  endfacet
  facet normal 0.382683 -2.05142e-16 -0.92388
    outer loop
      vertex -21.7678 6 9.76777
      vertex -20 4 10.5
      vertex -21.7678 4 9.76777
    endloop
  endfacet
  facet normal 0.92388 -8.49728e-17 -0.382683
    outer loop
      vertex -22.5 6 8
      vertex -21.7678 6 9.76777
      vertex -21.7678 4 9.76777
    endloop
  endfacet
  facet normal 0.92388 -8.49728e-17 -0.382683
    outer loop
      vertex -22.5 4 8
      vertex -22.5 6 8
      vertex -21.7678 4 9.76777
    endloop
  endfacet
  facet normal 0 1 -2.22045e-16
    outer loop
      vertex 105 6 -19.5
      vertex -15 6 -19.5
      vertex -9.5 6 -19.5
    endloop
  endfacet
  facet normal 0 1 -2.22045e-16
    outer loop
      vertex 99.5 6 -19.5
      vertex -9.5 6 -19.5
      vertex -9.5 6 -1.33227e-15
    endloop
  endfacet
  facet normal 0 1 -2.22045e-16
    outer loop
      vertex -9.5 6 -1.33227e-15
      vertex -15 6 -1.33227e-15
      vertex -15 6 15.5
    endloop
  endfacet
  facet normal 0 1 -2.22045e-16
    outer loop
      vertex 105 6 -1.33227e-15
      vertex -15 6 15.5
      vertex 105 6 15.5
    endloop
  endfacet
  facet normal 0 1 -2.22045e-16
    outer loop
      vertex 99.5 6 -1.33227e-15
      vertex -15 6 15.5
      vertex 105 6 -1.33227e-15
    endloop
  endfacet
  facet normal 0 1 -2.22045e-16
    outer loop
      vertex 105 6 -19.5
      vertex -9.5 6 -19.5
      vertex 99.5 6 -19.5
    endloop
  endfacet
  facet normal 0 1 -2.22045e-16
    outer loop
      vertex 99.5 6 -19.5
      vertex -9.5 6 -1.33227e-15
      vertex -15 6 15.5
    endloop
  endfacet
  facet normal 0 1 -2.22045e-16
    outer loop
      vertex 99.5 6 -19.5
      vertex -15 6 15.5
      vertex 99.5 6 -1.33227e-15
    endloop
  endfacet
  facet normal 0 1 0
    outer loop
      vertex 114.5 6 15.5
      vertex 105 6 15.5
      vertex 99.5 6 15.5
    endloop
  endfacet
  facet normal 0 1 0
    outer loop
      vertex 110 6 10.5
      vertex 105 6 15.5
      vertex 114.5 6 15.5
    endloop
  endfacet
  facet normal 0 1 0
    outer loop
      vertex 112.5 6 -12
      vertex 114.5 6 15.5
      vertex 114.5 6 -19.5
    endloop
  endfacet
  facet normal 0 1 0
    outer loop
      vertex 108.232 6 -13.7678
      vertex 99.5 6 -19.5
      vertex 99.5 6 -1.33227e-15
    endloop
  endfacet
  facet normal 0 1 0
    outer loop
      vertex 114.5 6 -19.5
      vertex 99.5 6 -19.5
      vertex 108.232 6 -13.7678
    endloop
  endfacet
  facet normal 0 1 0
    outer loop
      vertex 107.5 6 -12
      vertex 108.232 6 -13.7678
      vertex 99.5 6 -1.33227e-15
    endloop
  endfacet
  facet normal 0 1 0
    outer loop
      vertex 114.5 6 -19.5
      vertex 108.232 6 -13.7678
      vertex 110 6 -14.5
    endloop
  endfacet
  facet normal 0 1 0
    outer loop
      vertex 108.232 6 -10.2322
      vertex 105 6 -1.33227e-15
      vertex 110 6 -9.5
    endloop
  endfacet
  facet normal 0 1 0
    outer loop
      vertex 111.768 6 -10.2322
      vertex 114.5 6 15.5
      vertex 112.5 6 -12
    endloop
  endfacet
  facet normal 0 1 0
    outer loop
      vertex 111.768 6 -13.7678
      vertex 112.5 6 -12
      vertex 114.5 6 -19.5
    endloop
  endfacet
  facet normal 0 1 0
    outer loop
      vertex 112.5 6 8
      vertex 114.5 6 15.5
      vertex 111.768 6 -10.2322
    endloop
  endfacet
  facet normal 0 1 0
    outer loop
      vertex 105 6 -1.33227e-15
      vertex 111.768 6 -10.2322
      vertex 110 6 -9.5
    endloop
  endfacet
  facet normal 0 1 0
    outer loop
      vertex 105 6 -1.33227e-15
      vertex 108.232 6 -10.2322
      vertex 99.5 6 -1.33227e-15
    endloop
  endfacet
  facet normal 0 1 0
    outer loop
      vertex 110 6 5.5
      vertex 105 6 -1.33227e-15
      vertex 108.232 6 6.23223
    endloop
  endfacet
  facet normal 0 1 0
    outer loop
      vertex 110 6 10.5
      vertex 114.5 6 15.5
      vertex 111.768 6 9.76777
    endloop
  endfacet
  facet normal 0 1 0
    outer loop
      vertex 105 6 -1.33227e-15
      vertex 110 6 5.5
      vertex 111.768 6 -10.2322
    endloop
  endfacet
  facet normal 0 1 0
    outer loop
      vertex 110 6 5.5
      vertex 111.768 6 6.23223
      vertex 111.768 6 -10.2322
    endloop
  endfacet
  facet normal 0 1 0
    outer loop
      vertex 111.768 6 6.23223
      vertex 112.5 6 8
      vertex 111.768 6 -10.2322
    endloop
  endfacet
  facet normal 0 1 0
    outer loop
      vertex 111.768 6 9.76777
      vertex 114.5 6 15.5
      vertex 112.5 6 8
    endloop
  endfacet
  facet normal 0 1 0
    outer loop
      vertex 108.232 6 9.76777
      vertex 105 6 15.5
      vertex 110 6 10.5
    endloop
  endfacet
  facet normal 0 1 0
    outer loop
      vertex 107.5 6 8
      vertex 105 6 15.5
      vertex 108.232 6 9.76777
    endloop
  endfacet
  facet normal 0 1 0
    outer loop
      vertex 105 6 -1.33227e-15
      vertex 105 6 15.5
      vertex 107.5 6 8
    endloop
  endfacet
  facet normal 0 1 0
    outer loop
      vertex 105 6 -1.33227e-15
      vertex 107.5 6 8
      vertex 108.232 6 6.23223
    endloop
  endfacet
  facet normal 0 1 0
    outer loop
      vertex 111.768 6 -13.7678
      vertex 114.5 6 -19.5
      vertex 110 6 -14.5
    endloop
  endfacet
  facet normal 0 1 0
    outer loop
      vertex 107.5 6 -12
      vertex 99.5 6 -1.33227e-15
      vertex 108.232 6 -10.2322
    endloop
  endfacet
  facet normal 0 -1 0
    outer loop
      vertex 108.232 4 -13.7678
      vertex 105 4 -19.5
      vertex 114.5 4 -19.5
    endloop
  endfacet
  facet normal 0 -1 0
    outer loop
      vertex 99.5 4 15.5
      vertex 105 4 15.5
      vertex 114.5 4 15.5
    endloop
  endfacet
  facet normal 0 -1 0
    outer loop
      vertex 111.768 4 -10.2322
      vertex 112.5 4 -12
      vertex 105 4 15.5
    endloop
  endfacet
  facet normal 0 -1 0
    outer loop
      vertex 108.232 4 9.76777
      vertex 110 4 10.5
      vertex 114.5 4 15.5
    endloop
  endfacet
  facet normal 0 -1 0
    outer loop
      vertex 105 4 15.5
      vertex 105 4 -19.5
      vertex 107.5 4 -12
    endloop
  endfacet
  facet normal 0 -1 0
    outer loop
      vertex 110 4 -14.5
      vertex 108.232 4 -13.7678
      vertex 114.5 4 -19.5
    endloop
  endfacet
  facet normal 0 -1 0
    outer loop
      vertex 105 4 15.5
      vertex 107.5 4 -12
      vertex 108.232 4 -10.2322
    endloop
  endfacet
  facet normal 0 -1 0
    outer loop
      vertex 111.768 4 -13.7678
      vertex 110 4 -14.5
      vertex 114.5 4 -19.5
    endloop
  endfacet
  facet normal 0 -1 0
    outer loop
      vertex 105 4 15.5
      vertex 108.232 4 -10.2322
      vertex 110 4 -9.5
    endloop
  endfacet
  facet normal 0 -1 0
    outer loop
      vertex 105 4 15.5
      vertex 110 4 -9.5
      vertex 111.768 4 -10.2322
    endloop
  endfacet
  facet normal 0 -1 0
    outer loop
      vertex 114.5 4 15.5
      vertex 112.5 4 -12
      vertex 114.5 4 -19.5
    endloop
  endfacet
  facet normal 0 -1 0
    outer loop
      vertex 107.5 4 8
      vertex 105 4 15.5
      vertex 112.5 4 -12
    endloop
  endfacet
  facet normal 0 -1 0
    outer loop
      vertex 107.5 4 -12
      vertex 105 4 -19.5
      vertex 108.232 4 -13.7678
    endloop
  endfacet
  facet normal 0 -1 0
    outer loop
      vertex 108.232 4 6.23223
      vertex 107.5 4 8
      vertex 112.5 4 -12
    endloop
  endfacet
  facet normal 0 -1 0
    outer loop
      vertex 108.232 4 9.76777
      vertex 105 4 15.5
      vertex 107.5 4 8
    endloop
  endfacet
  facet normal 0 -1 0
    outer loop
      vertex 112.5 4 8
      vertex 111.768 4 6.23223
      vertex 112.5 4 -12
    endloop
  endfacet
  facet normal 0 -1 0
    outer loop
      vertex 114.5 4 15.5
      vertex 105 4 15.5
      vertex 108.232 4 9.76777
    endloop
  endfacet
  facet normal 0 -1 0
    outer loop
      vertex 111.768 4 6.23223
      vertex 110 4 5.5
      vertex 112.5 4 -12
    endloop
  endfacet
  facet normal 0 -1 0
    outer loop
      vertex 114.5 4 15.5
      vertex 110 4 10.5
      vertex 111.768 4 9.76777
    endloop
  endfacet
  facet normal 0 -1 0
    outer loop
      vertex 114.5 4 15.5
      vertex 112.5 4 8
      vertex 112.5 4 -12
    endloop
  endfacet
  facet normal 0 -1 0
    outer loop
      vertex 114.5 4 15.5
      vertex 111.768 4 9.76777
      vertex 112.5 4 8
    endloop
  endfacet
  facet normal 0 -1 0
    outer loop
      vertex 110 4 5.5
      vertex 108.232 4 6.23223
      vertex 112.5 4 -12
    endloop
  endfacet
  facet normal 0 -1 0
    outer loop
      vertex 112.5 4 -12
      vertex 111.768 4 -13.7678
      vertex 114.5 4 -19.5
    endloop
  endfacet
  facet normal 1 0 0
    outer loop
      vertex 105 4 -19.5
      vertex 105 -2 -19.5
      vertex 105 6 -19.5
    endloop
  endfacet
  facet normal 1 0 0
    outer loop
      vertex 105 4 -19.5
      vertex 105 4 15.5
      vertex 105 -2 15.5
    endloop
  endfacet
  facet normal 1 0 0
    outer loop
      vertex 105 -2 15.5
      vertex 105 -2 -19.5
      vertex 105 4 -19.5
    endloop
  endfacet
  facet normal 0 -1 2.22045e-16
    outer loop
      vertex 102 -2 15.5
      vertex 102 -2 -19.5
      vertex 105 -2 -19.5
    endloop
  endfacet
  facet normal 0 -1 2.22045e-16
    outer loop
      vertex 105 -2 15.5
      vertex 102 -2 15.5
      vertex 105 -2 -19.5
    endloop
  endfacet
  facet normal -1 0 0
    outer loop
      vertex 102 -1 15.5
      vertex 102 -1 -17.5
      vertex 102 -2 15.5
    endloop
  endfacet
  facet normal -1 0 0
    outer loop
      vertex 102 -0.5 -19.5
      vertex 102 -1 -17.5
      vertex 102 -0.5 -17.5
    endloop
  endfacet
  facet normal -1 0 0
    outer loop
      vertex 102 -2 -19.5
      vertex 102 -1 -17.5
      vertex 102 -0.5 -19.5
    endloop
  endfacet
  facet normal -1 0 0
    outer loop
      vertex 102 -2 15.5
      vertex 102 -1 -17.5
      vertex 102 -2 -19.5
    endloop
  endfacet
  facet normal 0 1 -2.22045e-16
    outer loop
      vertex 103.5 -1 15.5
      vertex 103.5 -1 -17.5
      vertex 102 -1 15.5
    endloop
  endfacet
  facet normal 0 1 -2.22045e-16
    outer loop
      vertex 102 -1 15.5
      vertex 103.5 -1 -17.5
      vertex 102 -1 -17.5
    endloop
  endfacet
  facet normal -1 0 0
    outer loop
      vertex 103.5 1 15.5
      vertex 103.5 1 -17.5
      vertex 103.5 -1 15.5
    endloop
  endfacet
  facet normal -1 0 0
    outer loop
      vertex 103.5 -1 15.5
      vertex 103.5 1 -17.5
      vertex 103.5 -1 -17.5
    endloop
  endfacet
  facet normal 0 -1 2.22045e-16
    outer loop
      vertex 103.5 1 -17.5
      vertex 103.5 1 15.5
      vertex 101 1 15.5
    endloop
  endfacet
  facet normal 0 -1 2.22045e-16
    outer loop
      vertex 101 1 -17.5
      vertex 103.5 1 -17.5
      vertex 101 1 15.5
    endloop
  endfacet
  facet normal -1 0 0
    outer loop
      vertex 101 3.5 15.5
      vertex 101 3.5 -17.5
      vertex 101 1 15.5
    endloop
  endfacet
  facet normal -1 0 0
    outer loop
      vertex 101 1 15.5
      vertex 101 3.5 -17.5
      vertex 101 1 -17.5
    endloop
  endfacet
  facet normal 0 -1 2.22045e-16
    outer loop
      vertex 101 3.5 -17.5
      vertex 101 3.5 15.5
      vertex 79 3.5 15.5
    endloop
  endfacet
  facet normal 0 -1 2.22045e-16
    outer loop
      vertex 79 3.5 -17.5
      vertex 101 3.5 -17.5
      vertex 79 3.5 15.5
    endloop
  endfacet
  facet normal 1 0 0
    outer loop
      vertex 79 3.5 -17.5
      vertex 79 3.5 15.5
      vertex 79 1 15.5
    endloop
  endfacet
  facet normal 1 0 0
    outer loop
      vertex 79 1 -17.5
      vertex 79 3.5 -17.5
      vertex 79 1 15.5
    endloop
  endfacet
  facet normal 0 -1 2.22045e-16
    outer loop
      vertex 79 1 -17.5
      vertex 79 1 15.5
      vertex 76.5 1 15.5
    endloop
  endfacet
  facet normal 0 -1 2.22045e-16
    outer loop
      vertex 76.5 1 -17.5
      vertex 79 1 -17.5
      vertex 76.5 1 15.5
    endloop
  endfacet
  facet normal 1 0 0
    outer loop
      vertex 76.5 1 -17.5
      vertex 76.5 1 15.5
      vertex 76.5 -1 15.5
    endloop
  endfacet
  facet normal 1 0 0
    outer loop
      vertex 76.5 -1 -17.5
      vertex 76.5 1 -17.5
      vertex 76.5 -1 15.5
    endloop
  endfacet
  facet normal 0 1 -2.22045e-16
    outer loop
      vertex 79 -1 15.5
      vertex 79 -1 -17.5
      vertex 76.5 -1 15.5
    endloop
  endfacet
  facet normal 0 1 -2.22045e-16
    outer loop
      vertex 76.5 -1 15.5
      vertex 79 -1 -17.5
      vertex 76.5 -1 -17.5
    endloop
  endfacet
  facet normal 1 0 0
    outer loop
      vertex 79 -0.5 -19.5
      vertex 79 -0.5 -17.5
      vertex 79 -1 -17.5
    endloop
  endfacet
  facet normal 1 0 0
    outer loop
      vertex 79 -2 -19.5
      vertex 79 -0.5 -19.5
      vertex 79 -1 -17.5
    endloop
  endfacet
  facet normal 1 0 0
    outer loop
      vertex 79 -1 15.5
      vertex 79 -2 15.5
      vertex 79 -1 -17.5
    endloop
  endfacet
  facet normal 1 0 0
    outer loop
      vertex 79 -2 15.5
      vertex 79 -2 -19.5
      vertex 79 -1 -17.5
    endloop
  endfacet
  facet normal 0 -1 2.22045e-16
    outer loop
      vertex 72 -2 15.5
      vertex 72 -2 -19.5
      vertex 79 -2 -19.5
    endloop
  endfacet
  facet normal 0 -1 2.22045e-16
    outer loop
      vertex 79 -2 15.5
      vertex 72 -2 15.5
      vertex 79 -2 -19.5
    endloop
  endfacet
  facet normal -1 0 0
    outer loop
      vertex 72 -1 15.5
      vertex 72 -1 -17.5
      vertex 72 -2 15.5
    endloop
  endfacet
  facet normal -1 0 0
    outer loop
      vertex 72 -0.5 -19.5
      vertex 72 -1 -17.5
      vertex 72 -0.5 -17.5
    endloop
  endfacet
  facet normal -1 0 0
    outer loop
      vertex 72 -2 -19.5
      vertex 72 -1 -17.5
      vertex 72 -0.5 -19.5
    endloop
  endfacet
  facet normal -1 0 0
    outer loop
      vertex 72 -2 15.5
      vertex 72 -1 -17.5
      vertex 72 -2 -19.5
    endloop
  endfacet
  facet normal 0 1 -2.22045e-16
    outer loop
      vertex 73.5 -1 15.5
      vertex 73.5 -1 -17.5
      vertex 72 -1 15.5
    endloop
  endfacet
  facet normal 0 1 -2.22045e-16
    outer loop
      vertex 72 -1 15.5
      vertex 73.5 -1 -17.5
      vertex 72 -1 -17.5
    endloop
  endfacet
  facet normal -1 0 0
    outer loop
      vertex 73.5 1 15.5
      vertex 73.5 1 -17.5
      vertex 73.5 -1 15.5
    endloop
  endfacet
  facet normal -1 0 0
    outer loop
      vertex 73.5 -1 15.5
      vertex 73.5 1 -17.5
      vertex 73.5 -1 -17.5
    endloop
  endfacet
  facet normal 0 -1 2.22045e-16
    outer loop
      vertex 73.5 1 -17.5
      vertex 73.5 1 15.5
      vertex 71 1 15.5
    endloop
  endfacet
  facet normal 0 -1 2.22045e-16
    outer loop
      vertex 71 1 -17.5
      vertex 73.5 1 -17.5
      vertex 71 1 15.5
    endloop
  endfacet
  facet normal -1 0 0
    outer loop
      vertex 71 3.5 15.5
      vertex 71 3.5 -17.5
      vertex 71 1 15.5
    endloop
  endfacet
  facet normal -1 0 0
    outer loop
      vertex 71 1 15.5
      vertex 71 3.5 -17.5
      vertex 71 1 -17.5
    endloop
  endfacet
  facet normal 0 -1 2.22045e-16
    outer loop
      vertex 71 3.5 -17.5
      vertex 71 3.5 15.5
      vertex 49 3.5 15.5
    endloop
  endfacet
  facet normal 0 -1 2.22045e-16
    outer loop
      vertex 49 3.5 -17.5
      vertex 71 3.5 -17.5
      vertex 49 3.5 15.5
    endloop
  endfacet
  facet normal 1 0 0
    outer loop
      vertex 49 3.5 -17.5
      vertex 49 3.5 15.5
      vertex 49 1 15.5
    endloop
  endfacet
  facet normal 1 0 0
    outer loop
      vertex 49 1 -17.5
      vertex 49 3.5 -17.5
      vertex 49 1 15.5
    endloop
  endfacet
  facet normal 0 -1 2.22045e-16
    outer loop
      vertex 49 1 -17.5
      vertex 49 1 15.5
      vertex 46.5 1 15.5
    endloop
  endfacet
  facet normal 0 -1 2.22045e-16
    outer loop
      vertex 46.5 1 -17.5
      vertex 49 1 -17.5
      vertex 46.5 1 15.5
    endloop
  endfacet
  facet normal 1 0 0
    outer loop
      vertex 46.5 1 -17.5
      vertex 46.5 1 15.5
      vertex 46.5 -1 15.5
    endloop
  endfacet
  facet normal 1 0 0
    outer loop
      vertex 46.5 -1 -17.5
      vertex 46.5 1 -17.5
      vertex 46.5 -1 15.5
    endloop
  endfacet
  facet normal 0 1 -2.22045e-16
    outer loop
      vertex 49 -1 15.5
      vertex 49 -1 -17.5
      vertex 46.5 -1 15.5
    endloop
  endfacet
  facet normal 0 1 -2.22045e-16
    outer loop
      vertex 46.5 -1 15.5
      vertex 49 -1 -17.5
      vertex 46.5 -1 -17.5
    endloop
  endfacet
  facet normal 1 0 0
    outer loop
      vertex 49 -0.5 -19.5
      vertex 49 -0.5 -17.5
      vertex 49 -1 -17.5
    endloop
  endfacet
  facet normal 1 0 0
    outer loop
      vertex 49 -2 -19.5
      vertex 49 -0.5 -19.5
      vertex 49 -1 -17.5
    endloop
  endfacet
  facet normal 1 0 0
    outer loop
      vertex 49 -1 15.5
      vertex 49 -2 15.5
      vertex 49 -1 -17.5
    endloop
  endfacet
  facet normal 1 0 0
    outer loop
      vertex 49 -2 15.5
      vertex 49 -2 -19.5
      vertex 49 -1 -17.5
    endloop
  endfacet
  facet normal 0 -1 2.22045e-16
    outer loop
      vertex 42 -2 15.5
      vertex 42 -2 -19.5
      vertex 49 -2 -19.5
    endloop
  endfacet
  facet normal 0 -1 2.22045e-16
    outer loop
      vertex 49 -2 15.5
      vertex 42 -2 15.5
      vertex 49 -2 -19.5
    endloop
  endfacet
  facet normal -1 0 0
    outer loop
      vertex 42 -1 15.5
      vertex 42 -1 -17.5
      vertex 42 -2 15.5
    endloop
  endfacet
  facet normal -1 0 0
    outer loop
      vertex 42 -0.5 -19.5
      vertex 42 -1 -17.5
      vertex 42 -0.5 -17.5
    endloop
  endfacet
  facet normal -1 0 0
    outer loop
      vertex 42 -2 -19.5
      vertex 42 -1 -17.5
      vertex 42 -0.5 -19.5
    endloop
  endfacet
  facet normal -1 0 0
    outer loop
      vertex 42 -2 15.5
      vertex 42 -1 -17.5
      vertex 42 -2 -19.5
    endloop
  endfacet
  facet normal 0 1 -2.22045e-16
    outer loop
      vertex 43.5 -1 15.5
      vertex 43.5 -1 -17.5
      vertex 42 -1 15.5
    endloop
  endfacet
  facet normal 0 1 -2.22045e-16
    outer loop
      vertex 42 -1 15.5
      vertex 43.5 -1 -17.5
      vertex 42 -1 -17.5
    endloop
  endfacet
  facet normal -1 0 0
    outer loop
      vertex 43.5 1 15.5
      vertex 43.5 1 -17.5
      vertex 43.5 -1 15.5
    endloop
  endfacet
  facet normal -1 0 0
    outer loop
      vertex 43.5 -1 15.5
      vertex 43.5 1 -17.5
      vertex 43.5 -1 -17.5
    endloop
  endfacet
  facet normal 0 -1 2.22045e-16
    outer loop
      vertex 43.5 1 -17.5
      vertex 43.5 1 15.5
      vertex 41 1 15.5
    endloop
  endfacet
  facet normal 0 -1 2.22045e-16
    outer loop
      vertex 41 1 -17.5
      vertex 43.5 1 -17.5
      vertex 41 1 15.5
    endloop
  endfacet
  facet normal -1 0 0
    outer loop
      vertex 41 3.5 15.5
      vertex 41 3.5 -17.5
      vertex 41 1 15.5
    endloop
  endfacet
  facet normal -1 0 0
    outer loop
      vertex 41 1 15.5
      vertex 41 3.5 -17.5
      vertex 41 1 -17.5
    endloop
  endfacet
  facet normal 0 -1 2.22045e-16
    outer loop
      vertex 41 3.5 -17.5
      vertex 41 3.5 15.5
      vertex 19 3.5 15.5
    endloop
  endfacet
  facet normal 0 -1 2.22045e-16
    outer loop
      vertex 19 3.5 -17.5
      vertex 41 3.5 -17.5
      vertex 19 3.5 15.5
    endloop
  endfacet
  facet normal 1 0 0
    outer loop
      vertex 19 3.5 -17.5
      vertex 19 3.5 15.5
      vertex 19 1 15.5
    endloop
  endfacet
  facet normal 1 0 0
    outer loop
      vertex 19 1 -17.5
      vertex 19 3.5 -17.5
      vertex 19 1 15.5
    endloop
  endfacet
  facet normal 0 -1 2.22045e-16
    outer loop
      vertex 19 1 -17.5
      vertex 19 1 15.5
      vertex 16.5 1 15.5
    endloop
  endfacet
  facet normal 0 -1 2.22045e-16
    outer loop
      vertex 16.5 1 -17.5
      vertex 19 1 -17.5
      vertex 16.5 1 15.5
    endloop
  endfacet
  facet normal 1 0 0
    outer loop
      vertex 16.5 1 -17.5
      vertex 16.5 1 15.5
      vertex 16.5 -1 15.5
    endloop
  endfacet
  facet normal 1 0 0
    outer loop
      vertex 16.5 -1 -17.5
      vertex 16.5 1 -17.5
      vertex 16.5 -1 15.5
    endloop
  endfacet
  facet normal 0 1 -2.22045e-16
    outer loop
      vertex 19 -1 15.5
      vertex 19 -1 -17.5
      vertex 16.5 -1 15.5
    endloop
  endfacet
  facet normal 0 1 -2.22045e-16
    outer loop
      vertex 16.5 -1 15.5
      vertex 19 -1 -17.5
      vertex 16.5 -1 -17.5
    endloop
  endfacet
  facet normal 1 0 0
    outer loop
      vertex 19 -0.5 -19.5
      vertex 19 -0.5 -17.5
      vertex 19 -1 -17.5
    endloop
  endfacet
  facet normal 1 0 0
    outer loop
      vertex 19 -2 -19.5
      vertex 19 -0.5 -19.5
      vertex 19 -1 -17.5
    endloop
  endfacet
  facet normal 1 0 0
    outer loop
      vertex 19 -1 15.5
      vertex 19 -2 15.5
      vertex 19 -1 -17.5
    endloop
  endfacet
  facet normal 1 0 0
    outer loop
      vertex 19 -2 15.5
      vertex 19 -2 -19.5
      vertex 19 -1 -17.5
    endloop
  endfacet
  facet normal 0 -1 2.22045e-16
    outer loop
      vertex 12 -2 15.5
      vertex 12 -2 -19.5
      vertex 19 -2 -19.5
    endloop
  endfacet
  facet normal 0 -1 2.22045e-16
    outer loop
      vertex 19 -2 15.5
      vertex 12 -2 15.5
      vertex 19 -2 -19.5
    endloop
  endfacet
  facet normal -1 0 0
    outer loop
      vertex 12 -1 15.5
      vertex 12 -1 -17.5
      vertex 12 -2 15.5
    endloop
  endfacet
  facet normal -1 0 0
    outer loop
      vertex 12 -0.5 -19.5
      vertex 12 -1 -17.5
      vertex 12 -0.5 -17.5
    endloop
  endfacet
  facet normal -1 0 0
    outer loop
      vertex 12 -2 -19.5
      vertex 12 -1 -17.5
      vertex 12 -0.5 -19.5
    endloop
  endfacet
  facet normal -1 0 0
    outer loop
      vertex 12 -2 15.5
      vertex 12 -1 -17.5
      vertex 12 -2 -19.5
    endloop
  endfacet
  facet normal 0 1 -2.22045e-16
    outer loop
      vertex 13.5 -1 15.5
      vertex 13.5 -1 -17.5
      vertex 12 -1 15.5
    endloop
  endfacet
  facet normal 0 1 -2.22045e-16
    outer loop
      vertex 12 -1 15.5
      vertex 13.5 -1 -17.5
      vertex 12 -1 -17.5
    endloop
  endfacet
  facet normal -1 0 0
    outer loop
      vertex 13.5 1 15.5
      vertex 13.5 1 -17.5
      vertex 13.5 -1 15.5
    endloop
  endfacet
  facet normal -1 0 0
    outer loop
      vertex 13.5 -1 15.5
      vertex 13.5 1 -17.5
      vertex 13.5 -1 -17.5
    endloop
  endfacet
  facet normal 0 -1 2.22045e-16
    outer loop
      vertex 13.5 1 -17.5
      vertex 13.5 1 15.5
      vertex 11 1 15.5
    endloop
  endfacet
  facet normal 0 -1 2.22045e-16
    outer loop
      vertex 11 1 -17.5
      vertex 13.5 1 -17.5
      vertex 11 1 15.5
    endloop
  endfacet
  facet normal -1 0 0
    outer loop
      vertex 11 3.5 15.5
      vertex 11 3.5 -17.5
      vertex 11 1 15.5
    endloop
  endfacet
  facet normal -1 0 0
    outer loop
      vertex 11 1 15.5
      vertex 11 3.5 -17.5
      vertex 11 1 -17.5
    endloop
  endfacet
  facet normal 0 -1 2.22045e-16
    outer loop
      vertex 11 3.5 -17.5
      vertex 11 3.5 15.5
      vertex -11 3.5 15.5
    endloop
  endfacet
  facet normal 0 -1 2.22045e-16
    outer loop
      vertex -11 3.5 -17.5
      vertex 11 3.5 -17.5
      vertex -11 3.5 15.5
    endloop
  endfacet
  facet normal 1 0 0
    outer loop
      vertex -11 3.5 -17.5
      vertex -11 3.5 15.5
      vertex -11 1 15.5
    endloop
  endfacet
  facet normal 1 0 0
    outer loop
      vertex -11 1 -17.5
      vertex -11 3.5 -17.5
      vertex -11 1 15.5
    endloop
  endfacet
  facet normal 0 -1 2.22045e-16
    outer loop
      vertex -11 1 -17.5
      vertex -11 1 15.5
      vertex -13.5 1 15.5
    endloop
  endfacet
  facet normal 0 -1 2.22045e-16
    outer loop
      vertex -13.5 1 -17.5
      vertex -11 1 -17.5
      vertex -13.5 1 15.5
    endloop
  endfacet
  facet normal 1 0 0
    outer loop
      vertex -13.5 1 -17.5
      vertex -13.5 1 15.5
      vertex -13.5 -1 15.5
    endloop
  endfacet
  facet normal 1 0 0
    outer loop
      vertex -13.5 -1 -17.5
      vertex -13.5 1 -17.5
      vertex -13.5 -1 15.5
    endloop
  endfacet
  facet normal 0 1 -2.22045e-16
    outer loop
      vertex -11 -1 15.5
      vertex -11 -1 -17.5
      vertex -13.5 -1 15.5
    endloop
  endfacet
  facet normal 0 1 -2.22045e-16
    outer loop
      vertex -13.5 -1 15.5
      vertex -11 -1 -17.5
      vertex -13.5 -1 -17.5
    endloop
  endfacet
  facet normal 1 0 0
    outer loop
      vertex -11 -0.5 -19.5
      vertex -11 -0.5 -17.5
      vertex -11 -1 -17.5
    endloop
  endfacet
  facet normal 1 0 0
    outer loop
      vertex -11 -2 -19.5
      vertex -11 -0.5 -19.5
      vertex -11 -1 -17.5
    endloop
  endfacet
  facet normal 1 0 0
    outer loop
      vertex -11 -1 15.5
      vertex -11 -2 15.5
      vertex -11 -1 -17.5
    endloop
  endfacet
  facet normal 1 0 0
    outer loop
      vertex -11 -2 15.5
      vertex -11 -2 -19.5
      vertex -11 -1 -17.5
    endloop
  endfacet
  facet normal 0 -1 2.22045e-16
    outer loop
      vertex -15 -2 15.5
      vertex -15 -2 -19.5
      vertex -11 -2 -19.5
    endloop
  endfacet
  facet normal 0 -1 2.22045e-16
    outer loop
      vertex -11 -2 15.5
      vertex -15 -2 15.5
      vertex -11 -2 -19.5
    endloop
  endfacet
  facet normal 0 -2.22045e-16 -1
    outer loop
      vertex -15 -2 -19.5
      vertex -15 6 -19.5
      vertex -11 -2 -19.5
    endloop
  endfacet
  facet normal 0 -2.22045e-16 -1
    outer loop
      vertex -11 -0.5 -19.5
      vertex -15 6 -19.5
      vertex 105 6 -19.5
    endloop
  endfacet
  facet normal 0 -2.22045e-16 -1
    outer loop
      vertex 102 -2 -19.5
      vertex 105 6 -19.5
      vertex 105 -2 -19.5
    endloop
  endfacet
  facet normal 0 -2.22045e-16 -1
    outer loop
      vertex 102 -0.5 -19.5
      vertex 105 6 -19.5
      vertex 102 -2 -19.5
    endloop
  endfacet
  facet normal 0 -2.22045e-16 -1
    outer loop
      vertex 79 -0.5 -19.5
      vertex 105 6 -19.5
      vertex 102 -0.5 -19.5
    endloop
  endfacet
  facet normal 0 -2.22045e-16 -1
    outer loop
      vertex 72 -0.5 -19.5
      vertex 105 6 -19.5
      vertex 79 -0.5 -19.5
    endloop
  endfacet
  facet normal 0 -2.22045e-16 -1
    outer loop
      vertex 72 -0.5 -19.5
      vertex 79 -0.5 -19.5
      vertex 72 -2 -19.5
    endloop
  endfacet
  facet normal 0 -2.22045e-16 -1
    outer loop
      vertex 49 -0.5 -19.5
      vertex 105 6 -19.5
      vertex 72 -0.5 -19.5
    endloop
  endfacet
  facet normal 0 -2.22045e-16 -1
    outer loop
      vertex 19 -2 -19.5
      vertex 12 -2 -19.5
      vertex 19 -0.5 -19.5
    endloop
  endfacet
  facet normal 0 -2.22045e-16 -1
    outer loop
      vertex 42 -0.5 -19.5
      vertex 105 6 -19.5
      vertex 49 -0.5 -19.5
    endloop
  endfacet
  facet normal 0 -2.22045e-16 -1
    outer loop
      vertex 12 -0.5 -19.5
      vertex 19 -0.5 -19.5
      vertex 12 -2 -19.5
    endloop
  endfacet
  facet normal 0 -2.22045e-16 -1
    outer loop
      vertex 19 -0.5 -19.5
      vertex 105 6 -19.5
      vertex 42 -0.5 -19.5
    endloop
  endfacet
  facet normal 0 -2.22045e-16 -1
    outer loop
      vertex 12 -0.5 -19.5
      vertex 105 6 -19.5
      vertex 19 -0.5 -19.5
    endloop
  endfacet
  facet normal 0 -2.22045e-16 -1
    outer loop
      vertex 42 -0.5 -19.5
      vertex 49 -0.5 -19.5
      vertex 42 -2 -19.5
    endloop
  endfacet
  facet normal 0 -2.22045e-16 -1
    outer loop
      vertex -11 -0.5 -19.5
      vertex 105 6 -19.5
      vertex 12 -0.5 -19.5
    endloop
  endfacet
  facet normal 0 -2.22045e-16 -1
    outer loop
      vertex -11 -2 -19.5
      vertex -15 6 -19.5
      vertex -11 -0.5 -19.5
    endloop
  endfacet
  facet normal 0 -2.22045e-16 -1
    outer loop
      vertex 49 -2 -19.5
      vertex 42 -2 -19.5
      vertex 49 -0.5 -19.5
    endloop
  endfacet
  facet normal 0 -2.22045e-16 -1
    outer loop
      vertex 79 -2 -19.5
      vertex 72 -2 -19.5
      vertex 79 -0.5 -19.5
    endloop
  endfacet
  facet normal 0 0 -1
    outer loop
      vertex 114.5 6 -19.5
      vertex 114.5 4 -19.5
      vertex 105 6 -19.5
    endloop
  endfacet
  facet normal 0 0 -1
    outer loop
      vertex 114.5 6 -19.5
      vertex 105 6 -19.5
      vertex 99.5 6 -19.5
    endloop
  endfacet
  facet normal 0 0 -1
    outer loop
      vertex 105 6 -19.5
      vertex 114.5 4 -19.5
      vertex 105 4 -19.5
    endloop
  endfacet
  facet normal 1 0 0
    outer loop
      vertex 114.5 6 -19.5
      vertex 114.5 6 15.5
      vertex 114.5 4 15.5
    endloop
  endfacet
  facet normal 1 0 0
    outer loop
      vertex 114.5 4 -19.5
      vertex 114.5 6 -19.5
      vertex 114.5 4 15.5
    endloop
  endfacet
  facet normal 0 0 1
    outer loop
      vertex 114.5 4 15.5
      vertex 114.5 6 15.5
      vertex 99.5 6 15.5
    endloop
  endfacet
  facet normal 0 0 1
    outer loop
      vertex 99.5 4 15.5
      vertex 114.5 4 15.5
      vertex 99.5 6 15.5
    endloop
  endfacet
  facet normal 0.382683 2.05142e-16 0.92388
    outer loop
      vertex 108.232 6 -13.7678
      vertex 108.232 4 -13.7678
      vertex 110 4 -14.5
    endloop
  endfacet
  facet normal 0.382683 2.05142e-16 0.92388
    outer loop
      vertex 110 6 -14.5
      vertex 108.232 6 -13.7678
      vertex 110 4 -14.5
    endloop
  endfacet
  facet normal 0.92388 8.49728e-17 0.382683
    outer loop
      vertex 107.5 6 -12
      vertex 107.5 4 -12
      vertex 108.232 4 -13.7678
    endloop
  endfacet
  facet normal 0.92388 8.49728e-17 0.382683
    outer loop
      vertex 108.232 6 -13.7678
      vertex 107.5 6 -12
      vertex 108.232 4 -13.7678
    endloop
  endfacet
  facet normal 0.92388 -8.49728e-17 -0.382683
    outer loop
      vertex 108.232 4 -10.2322
      vertex 107.5 4 -12
      vertex 107.5 6 -12
    endloop
  endfacet
  facet normal 0.92388 -8.49728e-17 -0.382683
    outer loop
      vertex 108.232 6 -10.2322
      vertex 108.232 4 -10.2322
      vertex 107.5 6 -12
    endloop
  endfacet
  facet normal 0.382683 -2.05142e-16 -0.92388
    outer loop
      vertex 108.232 4 -10.2322
      vertex 108.232 6 -10.2322
      vertex 110 4 -9.5
    endloop
  endfacet
  facet normal 0.382683 -2.05142e-16 -0.92388
    outer loop
      vertex 110 4 -9.5
      vertex 108.232 6 -10.2322
      vertex 110 6 -9.5
    endloop
  endfacet
  facet normal -0.382683 -2.05142e-16 -0.92388
    outer loop
      vertex 110 4 -9.5
      vertex 110 6 -9.5
      vertex 111.768 4 -10.2322
    endloop
  endfacet
  facet normal -0.382683 -2.05142e-16 -0.92388
    outer loop
      vertex 111.768 4 -10.2322
      vertex 110 6 -9.5
      vertex 111.768 6 -10.2322
    endloop
  endfacet
  facet normal -0.92388 -8.49728e-17 -0.382683
    outer loop
      vertex 111.768 4 -10.2322
      vertex 111.768 6 -10.2322
      vertex 112.5 4 -12
    endloop
  endfacet
  facet normal -0.92388 -8.49728e-17 -0.382683
    outer loop
      vertex 112.5 4 -12
      vertex 111.768 6 -10.2322
      vertex 112.5 6 -12
    endloop
  endfacet
  facet normal -0.92388 8.49728e-17 0.382683
    outer loop
      vertex 111.768 4 -13.7678
      vertex 112.5 4 -12
      vertex 111.768 6 -13.7678
    endloop
  endfacet
  facet normal -0.92388 8.49728e-17 0.382683
    outer loop
      vertex 111.768 6 -13.7678
      vertex 112.5 4 -12
      vertex 112.5 6 -12
    endloop
  endfacet
  facet normal -0.382683 2.05142e-16 0.92388
    outer loop
      vertex 110 6 -14.5
      vertex 110 4 -14.5
      vertex 111.768 4 -13.7678
    endloop
  endfacet
  facet normal -0.382683 2.05142e-16 0.92388
    outer loop
      vertex 111.768 6 -13.7678
      vertex 110 6 -14.5
      vertex 111.768 4 -13.7678
    endloop
  endfacet
  facet normal 0.382683 2.05142e-16 0.92388
    outer loop
      vertex 108.232 6 6.23223
      vertex 108.232 4 6.23223
      vertex 110 4 5.5
    endloop
  endfacet
  facet normal 0.382683 2.05142e-16 0.92388
    outer loop
      vertex 110 6 5.5
      vertex 108.232 6 6.23223
      vertex 110 4 5.5
    endloop
  endfacet
  facet normal 0.92388 8.49728e-17 0.382683
    outer loop
      vertex 107.5 6 8
      vertex 107.5 4 8
      vertex 108.232 4 6.23223
    endloop
  endfacet
  facet normal 0.92388 8.49728e-17 0.382683
    outer loop
      vertex 108.232 6 6.23223
      vertex 107.5 6 8
      vertex 108.232 4 6.23223
    endloop
  endfacet
  facet normal 0.92388 -8.49728e-17 -0.382683
    outer loop
      vertex 108.232 4 9.76777
      vertex 107.5 4 8
      vertex 107.5 6 8
    endloop
  endfacet
  facet normal 0.92388 -8.49728e-17 -0.382683
    outer loop
      vertex 108.232 6 9.76777
      vertex 108.232 4 9.76777
      vertex 107.5 6 8
    endloop
  endfacet
  facet normal 0.382683 -2.05142e-16 -0.92388
    outer loop
      vertex 108.232 4 9.76777
      vertex 108.232 6 9.76777
      vertex 110 4 10.5
    endloop
  endfacet
  facet normal 0.382683 -2.05142e-16 -0.92388
    outer loop
      vertex 110 4 10.5
      vertex 108.232 6 9.76777
      vertex 110 6 10.5
    endloop
  endfacet
  facet normal -0.382683 -2.05142e-16 -0.92388
    outer loop
      vertex 110 4 10.5
      vertex 110 6 10.5
      vertex 111.768 4 9.76777
    endloop
  endfacet
  facet normal -0.382683 -2.05142e-16 -0.92388
    outer loop
      vertex 111.768 4 9.76777
      vertex 110 6 10.5
      vertex 111.768 6 9.76777
    endloop
  endfacet
  facet normal -0.92388 -8.49728e-17 -0.382683
    outer loop
      vertex 111.768 4 9.76777
      vertex 111.768 6 9.76777
      vertex 112.5 4 8
    endloop
  endfacet
  facet normal -0.92388 -8.49728e-17 -0.382683
    outer loop
      vertex 112.5 4 8
      vertex 111.768 6 9.76777
      vertex 112.5 6 8
    endloop
  endfacet
  facet normal -0.92388 8.49728e-17 0.382683
    outer loop
      vertex 111.768 4 6.23223
      vertex 112.5 4 8
      vertex 111.768 6 6.23223
    endloop
  endfacet
  facet normal -0.92388 8.49728e-17 0.382683
    outer loop
      vertex 111.768 6 6.23223
      vertex 112.5 4 8
      vertex 112.5 6 8
    endloop
  endfacet
  facet normal -0.382683 2.05142e-16 0.92388
    outer loop
      vertex 110 6 5.5
      vertex 110 4 5.5
      vertex 111.768 4 6.23223
    endloop
  endfacet
  facet normal -0.382683 2.05142e-16 0.92388
    outer loop
      vertex 111.768 6 6.23223
      vertex 110 6 5.5
      vertex 111.768 4 6.23223
    endloop
  endfacet
  facet normal 0 -1 2.22045e-16
    outer loop
      vertex 102 -0.5 -19.5
      vertex 102 -0.5 -17.5
      vertex 79 -0.5 -17.5
    endloop
  endfacet
  facet normal 0 -1 2.22045e-16
    outer loop
      vertex 79 -0.5 -19.5
      vertex 102 -0.5 -19.5
      vertex 79 -0.5 -17.5
    endloop
  endfacet
  facet normal 0 2.22045e-16 1
    outer loop
      vertex 103.5 1 -17.5
      vertex 79 -0.5 -17.5
      vertex 102 -0.5 -17.5
    endloop
  endfacet
  facet normal 0 2.22045e-16 1
    outer loop
      vertex 101 1 -17.5
      vertex 101 3.5 -17.5
      vertex 79 -0.5 -17.5
    endloop
  endfacet
  facet normal 0 2.22045e-16 1
    outer loop
      vertex 79 -1 -17.5
      vertex 79 -0.5 -17.5
      vertex 76.5 1 -17.5
    endloop
  endfacet
  facet normal 0 2.22045e-16 1
    outer loop
      vertex 102 -1 -17.5
      vertex 103.5 -1 -17.5
      vertex 102 -0.5 -17.5
    endloop
  endfacet
  facet normal 0 2.22045e-16 1
    outer loop
      vertex 103.5 -1 -17.5
      vertex 103.5 1 -17.5
      vertex 102 -0.5 -17.5
    endloop
  endfacet
  facet normal 0 2.22045e-16 1
    outer loop
      vertex 103.5 1 -17.5
      vertex 101 1 -17.5
      vertex 79 -0.5 -17.5
    endloop
  endfacet
  facet normal 0 2.22045e-16 1
    outer loop
      vertex 79 1 -17.5
      vertex 76.5 1 -17.5
      vertex 79 -0.5 -17.5
    endloop
  endfacet
  facet normal 0 2.22045e-16 1
    outer loop
      vertex 101 3.5 -17.5
      vertex 79 1 -17.5
      vertex 79 -0.5 -17.5
    endloop
  endfacet
  facet normal 0 2.22045e-16 1
    outer loop
      vertex 101 3.5 -17.5
      vertex 79 3.5 -17.5
      vertex 79 1 -17.5
    endloop
  endfacet
  facet normal 0 2.22045e-16 1
    outer loop
      vertex 79 -1 -17.5
      vertex 76.5 1 -17.5
      vertex 76.5 -1 -17.5
    endloop
  endfacet
  facet normal 0 -1 2.22045e-16
    outer loop
      vertex 72 -0.5 -19.5
      vertex 72 -0.5 -17.5
      vertex 49 -0.5 -17.5
    endloop
  endfacet
  facet normal 0 -1 2.22045e-16
    outer loop
      vertex 49 -0.5 -19.5
      vertex 72 -0.5 -19.5
      vertex 49 -0.5 -17.5
    endloop
  endfacet
  facet normal 0 2.22045e-16 1
    outer loop
      vertex 73.5 1 -17.5
      vertex 49 -0.5 -17.5
      vertex 72 -0.5 -17.5
    endloop
  endfacet
  facet normal 0 2.22045e-16 1
    outer loop
      vertex 71 1 -17.5
      vertex 71 3.5 -17.5
      vertex 49 -0.5 -17.5
    endloop
  endfacet
  facet normal 0 2.22045e-16 1
    outer loop
      vertex 49 -1 -17.5
      vertex 49 -0.5 -17.5
      vertex 46.5 1 -17.5
    endloop
  endfacet
  facet normal 0 2.22045e-16 1
    outer loop
      vertex 72 -1 -17.5
      vertex 73.5 -1 -17.5
      vertex 72 -0.5 -17.5
    endloop
  endfacet
  facet normal 0 2.22045e-16 1
    outer loop
      vertex 73.5 -1 -17.5
      vertex 73.5 1 -17.5
      vertex 72 -0.5 -17.5
    endloop
  endfacet
  facet normal 0 2.22045e-16 1
    outer loop
      vertex 73.5 1 -17.5
      vertex 71 1 -17.5
      vertex 49 -0.5 -17.5
    endloop
  endfacet
  facet normal 0 2.22045e-16 1
    outer loop
      vertex 49 1 -17.5
      vertex 46.5 1 -17.5
      vertex 49 -0.5 -17.5
    endloop
  endfacet
  facet normal 0 2.22045e-16 1
    outer loop
      vertex 71 3.5 -17.5
      vertex 49 1 -17.5
      vertex 49 -0.5 -17.5
    endloop
  endfacet
  facet normal 0 2.22045e-16 1
    outer loop
      vertex 71 3.5 -17.5
      vertex 49 3.5 -17.5
      vertex 49 1 -17.5
    endloop
  endfacet
  facet normal 0 2.22045e-16 1
    outer loop
      vertex 49 -1 -17.5
      vertex 46.5 1 -17.5
      vertex 46.5 -1 -17.5
    endloop
  endfacet
  facet normal 0 -1 2.22045e-16
    outer loop
      vertex 42 -0.5 -19.5
      vertex 42 -0.5 -17.5
      vertex 19 -0.5 -17.5
    endloop
  endfacet
  facet normal 0 -1 2.22045e-16
    outer loop
      vertex 19 -0.5 -19.5
      vertex 42 -0.5 -19.5
      vertex 19 -0.5 -17.5
    endloop
  endfacet
  facet normal 0 2.22045e-16 1
    outer loop
      vertex 43.5 1 -17.5
      vertex 19 -0.5 -17.5
      vertex 42 -0.5 -17.5
    endloop
  endfacet
  facet normal 0 2.22045e-16 1
    outer loop
      vertex 41 1 -17.5
      vertex 41 3.5 -17.5
      vertex 19 -0.5 -17.5
    endloop
  endfacet
  facet normal 0 2.22045e-16 1
    outer loop
      vertex 19 -1 -17.5
      vertex 19 -0.5 -17.5
      vertex 16.5 1 -17.5
    endloop
  endfacet
  facet normal 0 2.22045e-16 1
    outer loop
      vertex 42 -1 -17.5
      vertex 43.5 -1 -17.5
      vertex 42 -0.5 -17.5
    endloop
  endfacet
  facet normal 0 2.22045e-16 1
    outer loop
      vertex 43.5 -1 -17.5
      vertex 43.5 1 -17.5
      vertex 42 -0.5 -17.5
    endloop
  endfacet
  facet normal 0 2.22045e-16 1
    outer loop
      vertex 43.5 1 -17.5
      vertex 41 1 -17.5
      vertex 19 -0.5 -17.5
    endloop
  endfacet
  facet normal 0 2.22045e-16 1
    outer loop
      vertex 19 1 -17.5
      vertex 16.5 1 -17.5
      vertex 19 -0.5 -17.5
    endloop
  endfacet
  facet normal 0 2.22045e-16 1
    outer loop
      vertex 41 3.5 -17.5
      vertex 19 1 -17.5
      vertex 19 -0.5 -17.5
    endloop
  endfacet
  facet normal 0 2.22045e-16 1
    outer loop
      vertex 41 3.5 -17.5
      vertex 19 3.5 -17.5
      vertex 19 1 -17.5
    endloop
  endfacet
  facet normal 0 2.22045e-16 1
    outer loop
      vertex 19 -1 -17.5
      vertex 16.5 1 -17.5
      vertex 16.5 -1 -17.5
    endloop
  endfacet
  facet normal 0 -1 2.22045e-16
    outer loop
      vertex 12 -0.5 -19.5
      vertex 12 -0.5 -17.5
      vertex -11 -0.5 -17.5
    endloop
  endfacet
  facet normal 0 -1 2.22045e-16
    outer loop
      vertex -11 -0.5 -19.5
      vertex 12 -0.5 -19.5
      vertex -11 -0.5 -17.5
    endloop
  endfacet
  facet normal 0 2.22045e-16 1
    outer loop
      vertex 13.5 1 -17.5
      vertex -11 -0.5 -17.5
      vertex 12 -0.5 -17.5
    endloop
  endfacet
  facet normal 0 2.22045e-16 1
    outer loop
      vertex 11 1 -17.5
      vertex 11 3.5 -17.5
      vertex -11 -0.5 -17.5
    endloop
  endfacet
  facet normal 0 2.22045e-16 1
    outer loop
      vertex -11 -1 -17.5
      vertex -11 -0.5 -17.5
      vertex -13.5 1 -17.5
    endloop
  endfacet
  facet normal 0 2.22045e-16 1
    outer loop
      vertex 12 -1 -17.5
      vertex 13.5 -1 -17.5
      vertex 12 -0.5 -17.5
    endloop
  endfacet
  facet normal 0 2.22045e-16 1
    outer loop
      vertex 13.5 -1 -17.5
      vertex 13.5 1 -17.5
      vertex 12 -0.5 -17.5
    endloop
  endfacet
  facet normal 0 2.22045e-16 1
    outer loop
      vertex 13.5 1 -17.5
      vertex 11 1 -17.5
      vertex -11 -0.5 -17.5
    endloop
  endfacet
  facet normal 0 2.22045e-16 1
    outer loop
      vertex -11 1 -17.5
      vertex -13.5 1 -17.5
      vertex -11 -0.5 -17.5
    endloop
  endfacet
  facet normal 0 2.22045e-16 1
    outer loop
      vertex 11 3.5 -17.5
      vertex -11 1 -17.5
      vertex -11 -0.5 -17.5
    endloop
  endfacet
  facet normal 0 2.22045e-16 1
    outer loop
      vertex 11 3.5 -17.5
      vertex -11 3.5 -17.5
      vertex -11 1 -17.5
    endloop
  endfacet
  facet normal 0 2.22045e-16 1
    outer loop
      vertex -11 -1 -17.5
      vertex -13.5 1 -17.5
      vertex -13.5 -1 -17.5
    endloop
  endfacet
endsolid OpenSCAD_Model
