solid OpenSCAD_Model
  facet normal -1 0 0
    outer loop
      vertex -15 6 -17
      vertex -15 -2 -17
      vertex -15 6 13
    endloop
  endfacet
  facet normal -1 0 0
    outer loop
      vertex -15 6 13
      vertex -15 -2 -17
      vertex -15 -2 13
    endloop
  endfacet
  facet normal 0 -2.22045e-16 -1
    outer loop
      vertex -11 -2 -17
      vertex -15 -2 -17
      vertex -11 -0.5 -17
    endloop
  endfacet
  facet normal 0 -2.22045e-16 -1
    outer loop
      vertex 11 -2 -17
      vertex 15 6 -17
      vertex 15 -2 -17
    endloop
  endfacet
  facet normal 0 -2.22045e-16 -1
    outer loop
      vertex 11 -0.5 -17
      vertex 15 6 -17
      vertex 11 -2 -17
    endloop
  endfacet
  facet normal 0 -2.22045e-16 -1
    outer loop
      vertex -15 6 -17
      vertex 15 6 -17
      vertex -11 -0.5 -17
    endloop
  endfacet
  facet normal 0 -2.22045e-16 -1
    outer loop
      vertex -15 6 -17
      vertex -11 -0.5 -17
      vertex -15 -2 -17
    endloop
  endfacet
  facet normal 0 -2.22045e-16 -1
    outer loop
      vertex -11 -0.5 -17
      vertex 15 6 -17
      vertex 11 -0.5 -17
    endloop
  endfacet
  facet normal 0 1 -2.22045e-16
    outer loop
      vertex -15 6 -17
      vertex -15 6 13
      vertex 15 6 -17
    endloop
  endfacet
  facet normal 0 1 -2.22045e-16
    outer loop
      vertex 15 6 -17
      vertex -15 6 13
      vertex 15 6 13
    endloop
  endfacet
  facet normal 0 2.22045e-16 1
    outer loop
      vertex -13.5 -1 13
      vertex -15 6 13
      vertex -15 -2 13
    endloop
  endfacet
  facet normal 0 2.22045e-16 1
    outer loop
      vertex -11 1 13
      vertex -11 3.5 13
      vertex -13.5 1 13
    endloop
  endfacet
  facet normal 0 2.22045e-16 1
    outer loop
      vertex -11 -2 13
      vertex -11 -1 13
      vertex -15 -2 13
    endloop
  endfacet
  facet normal 0 2.22045e-16 1
    outer loop
      vertex 11 -1 13
      vertex 11 -2 13
      vertex 13.5 -1 13
    endloop
  endfacet
  facet normal 0 2.22045e-16 1
    outer loop
      vertex -13.5 1 13
      vertex -15 6 13
      vertex -13.5 -1 13
    endloop
  endfacet
  facet normal 0 2.22045e-16 1
    outer loop
      vertex -11 3.5 13
      vertex -15 6 13
      vertex -13.5 1 13
    endloop
  endfacet
  facet normal 0 2.22045e-16 1
    outer loop
      vertex 15 6 13
      vertex -15 6 13
      vertex -11 3.5 13
    endloop
  endfacet
  facet normal 0 2.22045e-16 1
    outer loop
      vertex 11 1 13
      vertex 15 6 13
      vertex 11 3.5 13
    endloop
  endfacet
  facet normal 0 2.22045e-16 1
    outer loop
      vertex 13.5 1 13
      vertex 15 6 13
      vertex 11 1 13
    endloop
  endfacet
  facet normal 0 2.22045e-16 1
    outer loop
      vertex 13.5 -1 13
      vertex 15 6 13
      vertex 13.5 1 13
    endloop
  endfacet
  facet normal 0 2.22045e-16 1
    outer loop
      vertex 15 -2 13
      vertex 15 6 13
      vertex 13.5 -1 13
    endloop
  endfacet
  facet normal 0 2.22045e-16 1
    outer loop
      vertex 15 -2 13
      vertex 13.5 -1 13
      vertex 11 -2 13
    endloop
  endfacet
  facet normal 0 2.22045e-16 1
    outer loop
      vertex -11 -1 13
      vertex -13.5 -1 13
      vertex -15 -2 13
    endloop
  endfacet
  facet normal 0 2.22045e-16 1
    outer loop
      vertex -11 3.5 13
      vertex 11 3.5 13
      vertex 15 6 13
    endloop
  endfacet
  facet normal 0 -1 2.22045e-16
    outer loop
      vertex -15 -2 13
      vertex -15 -2 -17
      vertex -11 -2 -17
    endloop
  endfacet
  facet normal 0 -1 2.22045e-16
    outer loop
      vertex -11 -2 13
      vertex -15 -2 13
      vertex -11 -2 -17
    endloop
  endfacet
  facet normal 1 0 0
    outer loop
      vertex -11 -2 13
      vertex -11 -1 -15
      vertex -11 -1 13
    endloop
  endfacet
  facet normal 1 0 0
    outer loop
      vertex -11 -2 -17
      vertex -11 -1 -15
      vertex -11 -2 13
    endloop
  endfacet
  facet normal 1 0 0
    outer loop
      vertex -11 -0.5 -15
      vertex -11 -1 -15
      vertex -11 -2 -17
    endloop
  endfacet
  facet normal 1 0 0
    outer loop
      vertex -11 -0.5 -17
      vertex -11 -0.5 -15
      vertex -11 -2 -17
    endloop
  endfacet
  facet normal 0 -1 2.22045e-16
    outer loop
      vertex 11 -0.5 -17
      vertex 11 -0.5 -15
      vertex -11 -0.5 -15
    endloop
  endfacet
  facet normal 0 -1 2.22045e-16
    outer loop
      vertex -11 -0.5 -17
      vertex 11 -0.5 -17
      vertex -11 -0.5 -15
    endloop
  endfacet
  facet normal -1 0 0
    outer loop
      vertex 11 -2 13
      vertex 11 -1 13
      vertex 11 -2 -17
    endloop
  endfacet
  facet normal -1 0 0
    outer loop
      vertex 11 -2 -17
      vertex 11 -1 13
      vertex 11 -1 -15
    endloop
  endfacet
  facet normal -1 0 0
    outer loop
      vertex 11 -2 -17
      vertex 11 -1 -15
      vertex 11 -0.5 -15
    endloop
  endfacet
  facet normal -1 0 0
    outer loop
      vertex 11 -2 -17
      vertex 11 -0.5 -15
      vertex 11 -0.5 -17
    endloop
  endfacet
  facet normal 0 -1 2.22045e-16
    outer loop
      vertex 11 -2 13
      vertex 11 -2 -17
      vertex 15 -2 -17
    endloop
  endfacet
  facet normal 0 -1 2.22045e-16
    outer loop
      vertex 15 -2 13
      vertex 11 -2 13
      vertex 15 -2 -17
    endloop
  endfacet
  facet normal 1 0 0
    outer loop
      vertex 15 -2 -17
      vertex 15 6 -17
      vertex 15 6 13
    endloop
  endfacet
  facet normal 1 0 0
    outer loop
      vertex 15 -2 13
      vertex 15 -2 -17
      vertex 15 6 13
    endloop
  endfacet
  facet normal 0 1 -2.22045e-16
    outer loop
      vertex 13.5 -1 13
      vertex 13.5 -1 -15
      vertex 11 -1 13
    endloop
  endfacet
  facet normal 0 1 -2.22045e-16
    outer loop
      vertex 11 -1 13
      vertex 13.5 -1 -15
      vertex 11 -1 -15
    endloop
  endfacet
  facet normal -1 0 0
    outer loop
      vertex 13.5 -1 13
      vertex 13.5 1 13
      vertex 13.5 -1 -15
    endloop
  endfacet
  facet normal -1 0 0
    outer loop
      vertex 13.5 -1 -15
      vertex 13.5 1 13
      vertex 13.5 1 -15
    endloop
  endfacet
  facet normal 0 -1 2.22045e-16
    outer loop
      vertex 13.5 1 -15
      vertex 13.5 1 13
      vertex 11 1 13
    endloop
  endfacet
  facet normal 0 -1 2.22045e-16
    outer loop
      vertex 11 1 -15
      vertex 13.5 1 -15
      vertex 11 1 13
    endloop
  endfacet
  facet normal -1 0 0
    outer loop
      vertex 11 1 13
      vertex 11 3.5 13
      vertex 11 1 -15
    endloop
  endfacet
  facet normal -1 0 0
    outer loop
      vertex 11 1 -15
      vertex 11 3.5 13
      vertex 11 3.5 -15
    endloop
  endfacet
  facet normal 0 -1 2.22045e-16
    outer loop
      vertex 11 3.5 -15
      vertex 11 3.5 13
      vertex -11 3.5 13
    endloop
  endfacet
  facet normal 0 -1 2.22045e-16
    outer loop
      vertex -11 3.5 -15
      vertex 11 3.5 -15
      vertex -11 3.5 13
    endloop
  endfacet
  facet normal 1 0 0
    outer loop
      vertex -11 3.5 13
      vertex -11 1 13
      vertex -11 1 -15
    endloop
  endfacet
  facet normal 1 0 0
    outer loop
      vertex -11 3.5 -15
      vertex -11 3.5 13
      vertex -11 1 -15
    endloop
  endfacet
  facet normal 0 -1 2.22045e-16
    outer loop
      vertex -11 1 -15
      vertex -11 1 13
      vertex -13.5 1 13
    endloop
  endfacet
  facet normal 0 -1 2.22045e-16
    outer loop
      vertex -13.5 1 -15
      vertex -11 1 -15
      vertex -13.5 1 13
    endloop
  endfacet
  facet normal 1 0 0
    outer loop
      vertex -13.5 1 13
      vertex -13.5 -1 13
      vertex -13.5 -1 -15
    endloop
  endfacet
  facet normal 1 0 0
    outer loop
      vertex -13.5 1 -15
      vertex -13.5 1 13
      vertex -13.5 -1 -15
    endloop
  endfacet
  facet normal 0 1 -2.22045e-16
    outer loop
      vertex -11 -1 13
      vertex -11 -1 -15
      vertex -13.5 -1 13
    endloop
  endfacet
  facet normal 0 1 -2.22045e-16
    outer loop
      vertex -13.5 -1 13
      vertex -11 -1 -15
      vertex -13.5 -1 -15
    endloop
  endfacet
  facet normal 0 2.22045e-16 1
    outer loop
      vertex 11 -0.5 -15
      vertex 13.5 1 -15
      vertex -11 -0.5 -15
    endloop
  endfacet
  facet normal 0 2.22045e-16 1
    outer loop
      vertex -13.5 -1 -15
      vertex -11 -1 -15
      vertex -11 -0.5 -15
    endloop
  endfacet
  facet normal 0 2.22045e-16 1
    outer loop
      vertex 11 1 -15
      vertex 11 3.5 -15
      vertex -11 -0.5 -15
    endloop
  endfacet
  facet normal 0 2.22045e-16 1
    outer loop
      vertex -11 1 -15
      vertex -13.5 -1 -15
      vertex -11 -0.5 -15
    endloop
  endfacet
  facet normal 0 2.22045e-16 1
    outer loop
      vertex 11 -1 -15
      vertex 13.5 -1 -15
      vertex 11 -0.5 -15
    endloop
  endfacet
  facet normal 0 2.22045e-16 1
    outer loop
      vertex 13.5 -1 -15
      vertex 13.5 1 -15
      vertex 11 -0.5 -15
    endloop
  endfacet
  facet normal 0 2.22045e-16 1
    outer loop
      vertex 13.5 1 -15
      vertex 11 1 -15
      vertex -11 -0.5 -15
    endloop
  endfacet
  facet normal 0 2.22045e-16 1
    outer loop
      vertex 11 3.5 -15
      vertex -11 3.5 -15
      vertex -11 1 -15
    endloop
  endfacet
  facet normal 0 2.22045e-16 1
    outer loop
      vertex 11 3.5 -15
      vertex -11 1 -15
      vertex -11 -0.5 -15
    endloop
  endfacet
  facet normal 0 2.22045e-16 1
    outer loop
      vertex -11 1 -15
      vertex -13.5 1 -15
      vertex -13.5 -1 -15
    endloop
  endfacet
endsolid OpenSCAD_Model
